<?xml version="1.0" encoding="UTF-8"?>
<svg xmlns="http://www.w3.org/2000/svg" xmlns:xlink="http://www.w3.org/1999/xlink" width="37px" height="32px" viewBox="0 0 36 32" version="1.1">
<g id="surface1">
<path style="fill-rule:evenodd;fill:rgb(0%,0%,0%);fill-opacity:1;stroke-width:0.036;stroke-linecap:butt;stroke-linejoin:miter;stroke:rgb(0%,0%,0%);stroke-opacity:1;stroke-miterlimit:10;" d="M 179.749557 58.040566 C 181.101771 51.859658 180.512904 45.891152 178.419154 39.689004 C 176.303594 33.423135 173.533737 26.881143 166.772669 21.146279 C 159.749883 15.326455 147.623581 9.081826 137.023971 5.534707 C 126.380742 1.987588 115.606654 0.309609 103.327682 0.0122461 C 90.830612 -0.51876 75.738164 -0.00899414 63.459193 3.325723 C 51.049362 6.7454 38.377813 13.669717 30.177292 20.31791 C 21.998581 26.796182 17.069544 34.676309 14.932174 42.471475 C 12.816615 50.20292 13.427292 57.934365 17.178594 66.260537 C 16.851445 69.27665 15.411992 70.933389 12.707565 71.379434 C 9.872279 71.613076 2.958542 67.874795 1.017461 68.490762 C -0.85819 69.21293 0.0796354 73.822061 1.431849 75.372598 C 2.675013 76.838174 5.052292 77.41166 8.563685 77.241738 C 6.011927 78.601113 4.681523 79.939248 4.572474 81.234902 C 4.419805 82.530557 5.510299 83.677529 7.822148 84.824502 L 0.864792 94.042764 L 1.366419 99.012979 C 3.612839 98.758096 5.772018 98.651895 8.236536 98.991738 C 10.613815 99.16166 13.143763 99.777627 15.80457 100.521035 C 13.645391 103.409707 12.314987 106.213418 11.944219 108.953408 C 11.529831 111.693398 12.031458 114.136025 13.470911 116.684854 C 12.882044 123.056924 13.71082 128.600625 15.651901 133.719521 C 17.571172 138.647256 18.290898 141.535928 25.313685 146.782266 C 32.358281 152.007363 44.964401 160.291055 57.570521 164.836465 C 70.023971 169.296914 83.807826 173.757363 99.903529 173.077676 C 115.999232 172.058145 140.622604 167.342813 153.228724 159.760049 C 165.594935 152.049844 172.399622 141.790811 173.926315 128.005898 L 177.546758 126.009316 C 179.902227 122.483437 181.079961 118.936318 181.516159 115.325479 C 181.865117 111.608437 181.23263 108.018838 179.705938 104.238076 C 179.924036 102.220254 180.142135 99.820107 180.076706 96.995156 C 180.011276 94.042764 179.793177 90.877969 179.422409 87.075967 C 181.36349 87.203408 183.631719 87.606973 185.834518 88.541543 C 188.059128 89.412393 190.523646 93.086953 192.879115 92.322305 C 195.300013 91.345254 199.661992 87.904336 199.836471 83.507607 C 199.836471 79.110879 196.390508 70.614785 193.075404 66.366738 C 189.67306 62.118691 185.289271 59.336221 179.749557 58.040566 Z M 179.749557 58.040566 " transform="matrix(0.179104,0,0,0.183908,0.157612,0.0993103)"/>
<path style="fill-rule:evenodd;fill:rgb(77.647059%,56.470588%,17.254902%);fill-opacity:1;stroke-width:0.036;stroke-linecap:butt;stroke-linejoin:miter;stroke:rgb(0%,0%,0%);stroke-opacity:1;stroke-miterlimit:10;" d="M 176.957891 60.971719 C 174.97319 69.000527 169.782435 75.330117 160.709518 80.364053 C 151.462122 85.228066 137.198451 88.860146 122.803919 90.304482 C 108.256719 91.536416 89.936406 90.516885 75.171107 88.647744 C 60.493047 86.714883 45.051641 84.442178 35.215378 79.365762 C 25.204635 74.183145 18.225469 66.324258 16.066289 58.168008 C 13.907109 49.841836 16.437057 39.009316 22.805547 30.661904 C 29.239466 22.272012 42.717982 13.329873 54.059128 8.593301 C 65.356654 3.793008 78.464401 3.11332 89.478398 2.348672 C 100.230677 1.520303 108.409388 2.072549 118.42013 3.835488 C 128.321823 5.492227 139.40125 7.764932 148.474167 12.586465 C 157.503464 17.301797 166.947148 24.396035 171.919805 32.488564 C 176.674362 40.666055 178.724492 52.794229 176.957891 60.971719 Z M 176.957891 60.971719 " transform="matrix(0.179104,0,0,0.183908,0.157612,0.0993103)"/>
<path style="fill-rule:evenodd;fill:rgb(0%,76.078431%,0%);fill-opacity:1;stroke-width:0.036;stroke-linecap:butt;stroke-linejoin:miter;stroke:rgb(0%,0%,0%);stroke-opacity:1;stroke-miterlimit:10;" d="M 180.033086 59.994668 C 183.522669 60.886758 186.510625 62.692178 189.302292 65.793252 C 191.919479 68.745645 195.409063 73.970742 196.303268 77.985146 C 197.175664 81.91459 195.779831 87.649453 194.580286 89.327432 C 193.249883 90.814248 191.526901 88.584023 188.560755 87.500771 C 185.39832 86.311318 180.403854 84.187295 176.194544 83.061562 C 171.876185 81.95707 167.754115 81.234902 163.326706 80.916299 C 166.62 80.15165 169.607956 77.921426 172.443242 74.501748 C 175.213099 70.912148 177.699427 66.260537 180.033086 59.994668 Z M 180.033086 59.994668 " transform="matrix(0.179104,0,0,0.183908,0.157612,0.0993103)"/>
<path style="fill-rule:evenodd;fill:rgb(100%,100%,100%);fill-opacity:1;stroke-width:0.036;stroke-linecap:butt;stroke-linejoin:miter;stroke:rgb(0%,0%,0%);stroke-opacity:1;stroke-miterlimit:10;" d="M 152.290898 103.239785 C 149.193893 104.195596 146.751185 106.616982 144.657435 110.865029 C 142.541875 115.113076 141.015182 120.656777 139.968307 128.17582 C 139.510299 126.773965 137.067591 124.862344 132.640182 122.462197 C 128.103724 119.97709 121.735234 117.024697 113.229375 113.456338 C 114.123581 112.012002 115.126836 111.183633 116.784388 110.97123 C 118.332891 110.716348 120.819219 112.415566 122.454961 112.012002 C 124.025273 111.396035 125.115768 110.249062 126.075404 108.018838 C 127.558477 109.633096 128.95431 110.397744 130.590052 110.142861 C 132.094935 109.887979 133.817917 106.616982 135.322799 106.574502 C 136.696823 106.468301 137.918177 107.360391 139.008672 109.420693 C 139.793828 105.746133 141.298711 103.409707 143.54513 102.411416 C 145.74793 101.328164 148.648646 101.646768 152.290898 103.239785 Z M 152.290898 103.239785 " transform="matrix(0.179104,0,0,0.183908,0.157612,0.0993103)"/>
<path style="fill-rule:evenodd;fill:rgb(37.254902%,0%,74.901961%);fill-opacity:1;stroke-width:0.036;stroke-linecap:butt;stroke-linejoin:miter;stroke:rgb(0%,0%,0%);stroke-opacity:1;stroke-miterlimit:10;" d="M 112.444219 114.178506 C 115.672083 115.4954 118.660039 116.791055 121.408086 118.065469 C 124.068893 119.148721 125.748255 119.785928 128.84526 121.506387 C 131.985885 123.248086 135.584518 125.542031 139.946497 128.579385 L 139.35763 132.360146 C 135.12651 129.004189 130.699102 126.200479 126.075404 123.63041 C 121.408086 121.039102 116.544479 119.000039 111.506393 117.194619 C 111.789922 116.175088 112.11707 115.176797 112.444219 114.157266 Z M 112.444219 114.178506 " transform="matrix(0.179104,0,0,0.183908,0.157612,0.0993103)"/>
<path style="fill-rule:evenodd;fill:rgb(100%,100%,100%);fill-opacity:1;stroke-width:0.036;stroke-linecap:butt;stroke-linejoin:miter;stroke:rgb(0%,0%,0%);stroke-opacity:1;stroke-miterlimit:10;" d="M 2.413294 93.72416 L 8.869023 86.821084 C 11.464401 88.838906 13.68901 89.900918 15.564661 90.198281 C 17.244023 90.346963 18.508997 88.031777 19.883021 88.137979 C 21.278854 88.137979 22.19487 90.920449 23.939661 90.623086 C 25.575404 90.198281 28.694219 86.120156 29.893763 86.353799 C 31.006068 86.523721 31.289596 88.541543 30.744349 92.109902 C 31.442266 93.554238 31.834844 94.59501 32.074753 95.635781 C 32.227422 96.570352 32.183802 97.335 31.987513 97.908486 C 28.279831 96.527871 23.983281 95.593301 19.119674 94.956094 C 14.190638 94.340127 8.803594 94.021523 2.784063 94.127725 Z M 2.413294 93.72416 " transform="matrix(0.179104,0,0,0.183908,0.157612,0.0993103)"/>
<path style="fill-rule:evenodd;fill:rgb(37.254902%,0%,74.901961%);fill-opacity:1;stroke-width:0.036;stroke-linecap:butt;stroke-linejoin:miter;stroke:rgb(0%,0%,0%);stroke-opacity:1;stroke-miterlimit:10;" d="M 33.012578 99.480264 C 30.395391 98.333291 26.513229 97.335 21.366094 96.612832 C 16.131719 95.784463 9.719609 95.232217 1.998906 94.849893 L 2.631393 97.186318 C 5.37944 97.462441 8.389206 97.823525 11.70431 98.397012 C 14.975794 98.843057 18.508997 99.522744 22.282109 100.457314 C 26.011602 101.285684 29.632044 102.368936 33.601445 103.70707 C 33.426966 102.283975 33.230677 100.882119 33.012578 99.480264 Z M 33.012578 99.480264 " transform="matrix(0.179104,0,0,0.183908,0.157612,0.0993103)"/>
<path style="fill-rule:evenodd;fill:rgb(0%,76.078431%,0%);fill-opacity:1;stroke-width:0.036;stroke-linecap:butt;stroke-linejoin:miter;stroke:rgb(0%,0%,0%);stroke-opacity:1;stroke-miterlimit:10;" d="M 33.165247 81.91459 C 32.62 84.718301 32.729049 87.776895 33.099818 91.090371 C 33.492396 94.340127 34.277552 98.375771 35.607956 101.540566 C 36.916549 104.662881 37.047409 107.806436 40.90776 109.824258 C 44.680872 111.650918 52.576055 116.217568 58.290247 112.989053 C 63.917201 109.590615 69.129766 102.114053 74.342331 90.134561 C 68.475469 89.794717 62.281458 88.966348 55.367721 87.649453 C 48.432174 86.226357 41.147669 84.335977 33.165247 81.91459 Z M 33.165247 81.91459 " transform="matrix(0.179104,0,0,0.183908,0.157612,0.0993103)"/>
<path style="fill-rule:evenodd;fill:rgb(100%,0%,0%);fill-opacity:1;stroke-width:0.036;stroke-linecap:butt;stroke-linejoin:miter;stroke:rgb(0%,0%,0%);stroke-opacity:1;stroke-miterlimit:10;" d="M 18.443568 101.434365 C 21.475143 101.710488 24.31043 102.283975 27.123906 103.006143 C 29.915573 103.66459 32.401901 104.59916 34.997279 105.682412 C 35.477096 107.955117 36.72026 109.930459 38.92306 111.608437 C 41.01681 113.158975 44.855352 114.794473 47.843307 115.4954 C 50.765833 116.217568 53.47026 117.024697 56.632695 115.941445 C 59.707891 114.709512 63.044805 112.266885 66.534388 108.443643 C 68.868047 108.634805 71.245326 108.677285 73.818893 108.422402 C 76.283411 108.16752 78.813359 107.657754 81.517786 106.893105 C 80.514531 109.484414 80.81987 111.226113 82.78276 111.948281 C 84.680221 112.670449 87.951706 112.436807 92.749883 111.289834 L 91.550339 119.616006 C 86.119674 122.525918 79.925664 124.331338 72.575729 125.159707 C 65.138555 125.988076 56.916224 128.1121 47.821497 124.288857 C 38.704961 120.274453 29.064987 112.77665 18.443568 101.434365 Z M 18.443568 101.434365 " transform="matrix(0.179104,0,0,0.183908,0.157612,0.0993103)"/>
<path style="fill-rule:evenodd;fill:rgb(100%,0%,0%);fill-opacity:1;stroke-width:0.036;stroke-linecap:butt;stroke-linejoin:miter;stroke:rgb(0%,0%,0%);stroke-opacity:1;stroke-miterlimit:10;" d="M 100.841354 116.663613 C 103.044154 119.403604 106.555547 121.740029 111.571823 123.672891 C 116.544479 125.626992 122.73849 126.965127 130.437383 128.069619 C 125.857305 125.903115 121.757044 123.970254 118.114792 122.101113 C 114.407109 120.189492 111.244674 118.596475 108.474818 117.067178 L 104.178268 110.716348 C 103.065964 112.71293 101.953659 114.688271 100.819544 116.663613 Z M 100.841354 116.663613 " transform="matrix(0.179104,0,0,0.183908,0.157612,0.0993103)"/>
<path style="fill-rule:evenodd;fill:rgb(50.196078%,100%,0%);fill-opacity:1;stroke-width:0.036;stroke-linecap:butt;stroke-linejoin:miter;stroke:rgb(0%,0%,0%);stroke-opacity:1;stroke-miterlimit:10;" d="M 111.637253 107.254189 C 110.263229 102.114053 108.867396 96.973916 107.471563 91.812539 C 99.838099 92.067422 93.600469 92.067422 88.344284 91.961221 C 83.088099 91.770059 79.096888 91.451455 76.217982 90.98417 C 72.728398 96.740273 70.591029 100.96708 69.849492 103.622109 C 69.086146 106.298379 69.980352 106.319619 71.572474 106.786904 C 73.055547 107.147988 75.825404 106.510781 78.486211 105.958535 C 81.037969 105.342568 83.633346 104.535439 86.664922 103.345986 C 84.287643 105.576211 83.088099 107.33915 82.95724 108.486123 C 82.84819 109.526895 83.916875 109.951699 85.901576 110.185342 C 87.777227 110.355264 90.590703 110.249062 94.320195 109.845498 C 93.774948 113.116494 93.753138 115.367959 94.363815 116.684854 C 94.974492 118.022988 96.239466 119.361123 97.744349 117.619424 C 99.074753 115.729043 100.732305 111.86332 102.564336 105.682412 C 105.87944 110.206582 108.300339 112.627969 109.805221 112.904092 C 111.331914 113.116494 111.942591 111.289834 111.637253 107.254189 Z M 111.637253 107.254189 " transform="matrix(0.179104,0,0,0.183908,0.157612,0.0993103)"/>
<path style="fill-rule:evenodd;fill:rgb(100%,0%,0%);fill-opacity:1;stroke-width:0.036;stroke-linecap:butt;stroke-linejoin:miter;stroke:rgb(0%,0%,0%);stroke-opacity:1;stroke-miterlimit:10;" d="M 143.58875 124.54374 C 146.031458 123.885293 148.626836 122.887002 151.745651 121.506387 C 154.820846 120.083291 158.15776 118.384072 161.930872 116.302529 C 160.535039 110.822549 159.553594 107.721475 158.637578 106.616982 C 157.699753 105.53373 157.372604 110.249062 156.543828 109.930459 C 155.649622 109.526895 154.624557 107.700234 153.381393 104.407998 C 150.349818 106.40458 148.190638 109.14457 146.489466 112.479287 C 144.853724 115.920205 143.872279 119.807168 143.58875 124.54374 Z M 143.58875 124.54374 " transform="matrix(0.179104,0,0,0.183908,0.157612,0.0993103)"/>
<path style="fill-rule:evenodd;fill:rgb(100%,0%,0%);fill-opacity:1;stroke-width:0.036;stroke-linecap:butt;stroke-linejoin:miter;stroke:rgb(0%,0%,0%);stroke-opacity:1;stroke-miterlimit:10;" d="M 177.786667 90.028359 L 172.159714 95.444619 C 172.225143 98.545693 172.748581 101.073281 173.272018 103.154824 C 173.926315 105.257607 174.602422 106.723184 175.736536 107.870156 L 178.571823 104.55668 C 178.310104 99.735146 178.070195 94.871133 177.786667 90.007119 Z M 177.786667 90.028359 " transform="matrix(0.179104,0,0,0.183908,0.157612,0.0993103)"/>
<path style="fill-rule:evenodd;fill:rgb(100%,0%,0%);fill-opacity:1;stroke-width:0.036;stroke-linecap:butt;stroke-linejoin:miter;stroke:rgb(0%,0%,0%);stroke-opacity:1;stroke-miterlimit:10;" d="M 173.359258 109.229531 C 172.83582 107.615273 171.876185 106.871865 170.436732 106.829385 C 168.888229 106.723184 165.311406 108.018838 164.59168 109.208291 C 163.871953 110.355264 164.177292 111.905801 165.856654 113.838662 C 167.797734 112.904092 169.237188 112.181924 170.567591 111.396035 C 171.876185 110.631387 172.661341 109.909219 173.337448 109.250771 Z M 173.359258 109.229531 " transform="matrix(0.179104,0,0,0.183908,0.157612,0.0993103)"/>
<path style="fill-rule:evenodd;fill:rgb(50.196078%,25.098039%,0%);fill-opacity:1;stroke-width:0.036;stroke-linecap:butt;stroke-linejoin:miter;stroke:rgb(0%,0%,0%);stroke-opacity:1;stroke-miterlimit:10;" d="M 16.349818 103.006143 C 14.234258 106.043496 13.623581 109.208291 14.365117 112.521768 C 15.128464 115.835244 17.96375 119.212441 20.951706 122.6746 C 23.765182 126.009316 24.484909 128.027139 31.725794 132.593789 C 39.032109 137.096719 50.046107 145.529092 64.09168 149.522256 C 78.093633 153.409219 100.165247 156.658975 114.886927 155.894326 C 129.564987 154.917275 140.949753 149.819619 151.353073 144.297158 C 161.581914 138.647256 169.651576 131.76542 175.976445 122.844521 C 178.746302 118.235391 180.142135 114.751992 180.338424 112.521768 C 180.556523 110.0579 179.967656 107.827676 176.805221 109.165811 C 173.381068 110.525186 166.227422 117.513223 160.578659 120.826699 C 154.995326 124.076455 149.259323 126.476602 143.392461 128.345742 L 140.775273 135.078896 L 132.596563 130.469766 C 129.368698 131.234414 125.115768 130.618447 119.706914 129.04667 C 114.23263 127.26249 107.90776 124.54374 100.274297 120.423135 C 93.578659 123.524209 86.512253 125.584512 78.966029 126.986367 C 71.223516 128.239541 62.434128 129.832559 54.844284 128.430703 C 47.101771 126.773965 40.122604 122.525918 33.601445 118.19291 C 27.145716 113.902383 21.518763 108.932168 16.371628 103.027383 Z M 16.349818 103.006143 " transform="matrix(0.179104,0,0,0.183908,0.157612,0.0993103)"/>
<path style="fill-rule:evenodd;fill:rgb(0%,0%,0%);fill-opacity:1;stroke-width:0.036;stroke-linecap:butt;stroke-linejoin:miter;stroke:rgb(0%,0%,0%);stroke-opacity:1;stroke-miterlimit:10;" d="M 63.720911 133.868203 C 64.309779 134.50541 84.680221 139.433145 95.846888 140.049111 C 106.882695 140.452676 124.963099 137.648965 129.216029 136.778115 C 133.09819 135.886025 126.293503 134.802773 120.186732 134.802773 C 114.014531 134.696572 102.455286 136.586953 92.989792 136.480752 C 83.437057 136.31083 63.306523 133.230996 63.742721 133.868203 Z M 63.720911 133.868203 " transform="matrix(0.179104,0,0,0.183908,0.157612,0.0993103)"/>
<path style="fill-rule:evenodd;fill:rgb(77.647059%,56.470588%,17.254902%);fill-opacity:1;stroke-width:0.036;stroke-linecap:butt;stroke-linejoin:miter;stroke:rgb(0%,0%,0%);stroke-opacity:1;stroke-miterlimit:10;" d="M 16.742396 119.658486 C 20.450078 125.308389 25.531784 130.597207 31.987513 135.673623 C 38.312383 140.707559 45.945846 146.187539 55.302292 149.8621 C 64.745977 153.409219 75.999883 155.873086 87.733607 157.18998 C 99.336471 158.464395 113.294805 159.398965 124.352422 157.529824 C 135.19194 155.427041 144.875534 150.223184 152.836146 145.614053 C 160.796758 141.026162 166.794479 135.886025 171.549036 130.172402 C 172.028854 134.696572 170.262253 139.263223 166.66362 144.021035 C 162.846888 148.821328 156.783737 154.343789 149.477422 158.421914 C 142.127487 162.245156 134.036016 165.558633 123.087448 167.385293 C 111.942591 169.105752 97.002813 171.017373 83.720586 169.233193 C 70.416549 167.236611 54.582565 161.67167 44.244674 156.510293 C 33.841354 151.285195 26.42599 145.168008 21.867721 138.9871 C 17.222214 132.72123 15.564661 126.455361 16.764206 119.658486 Z M 16.742396 119.658486 " transform="matrix(0.179104,0,0,0.183908,0.157612,0.0993103)"/>
<path style="fill-rule:evenodd;fill:rgb(50.196078%,100%,0%);fill-opacity:1;stroke-width:0.036;stroke-linecap:butt;stroke-linejoin:miter;stroke:rgb(0%,0%,0%);stroke-opacity:1;stroke-miterlimit:10;" d="M 110.06694 93.086953 C 111.244674 98.22709 112.575078 101.965371 114.058151 104.747842 C 115.563034 107.33915 117.198776 108.486123 118.769089 109.165811 C 120.317591 109.675576 121.866094 109.314492 123.022018 108.634805 C 124.068893 107.976357 124.505091 106.871865 124.70138 105.278848 C 126.467982 106.532021 127.842005 107.126748 129.216029 107.020547 C 130.481003 106.786904 130.829961 104.854043 132.378464 104.535439 C 133.861536 104.131875 135.977096 104.280557 138.463424 104.811562 C 139.074102 101.476846 140.448125 99.374062 142.999883 98.545693 C 145.486211 97.717324 151.025924 98.630654 153.228724 99.841348 C 155.235234 100.96708 154.711797 104.59916 155.627813 105.321328 C 156.543828 105.788613 157.438034 102.007852 158.768438 103.558389 C 160.098841 105.130166 162.258021 113.66874 163.152227 114.858193 C 163.850143 115.898965 162.868698 112.054482 163.021367 110.249062 C 163.130417 108.316201 162.803268 105.172646 163.697474 104.195596 C 164.59168 103.303506 166.358281 104.55668 167.884974 104.769082 C 169.171758 104.896523 170.436732 104.960244 171.658086 105.002725 C 170.371302 102.368936 169.673385 100.181191 169.738815 98.014687 C 169.738815 95.890664 170.458542 94.340127 171.897995 92.386025 C 173.272018 90.304482 175.256719 88.222939 177.982956 85.844033 L 161.712773 82.700479 C 158.20138 84.697061 153.446823 86.353799 147.318242 88.116738 C 141.102422 89.773477 131.200729 91.748818 124.963099 92.683389 C 118.747279 93.532998 113.774622 93.575479 110.06694 93.065713 Z M 110.06694 93.086953 " transform="matrix(0.179104,0,0,0.183908,0.157612,0.0993103)"/>
<path style="fill-rule:evenodd;fill:rgb(50.196078%,100%,0%);fill-opacity:1;stroke-width:0.036;stroke-linecap:butt;stroke-linejoin:miter;stroke:rgb(0%,0%,0%);stroke-opacity:1;stroke-miterlimit:10;" d="M 19.381393 67.874795 C 19.599492 69.998818 19.054245 71.549355 17.614792 72.377725 C 16.109909 73.142373 13.296432 72.993691 10.744674 72.781289 C 7.996628 72.420205 3.023971 70.466104 2.064336 70.827187 C 1.17013 71.03959 3.569219 73.885781 5.270391 74.799111 C 6.927943 75.648721 8.934453 76.200967 11.70431 76.264687 C 9.65418 78.537393 8.607305 80.512734 8.716354 82.211953 C 8.803594 83.78373 10.373906 85.58915 11.966029 86.205117 C 13.405482 86.714883 15.564661 85.52543 17.331263 85.695352 C 18.792526 85.886514 19.555872 87.776895 21.824102 87.097207 C 24.20138 86.247598 27.232956 84.144814 31.333216 80.703896 C 29.806523 80.10917 28.192591 78.707314 26.186081 76.625771 C 24.15776 74.395547 21.889531 71.613076 19.381393 67.874795 Z M 19.381393 67.874795 " transform="matrix(0.179104,0,0,0.183908,0.157612,0.0993103)"/>
<path style="fill-rule:evenodd;fill:rgb(0%,0%,0%);fill-opacity:1;stroke-width:0.036;stroke-linecap:butt;stroke-linejoin:miter;stroke:rgb(0%,0%,0%);stroke-opacity:1;stroke-miterlimit:10;" d="M 44.833542 87.139687 C 44.680872 86.842324 43.11056 86.587441 43.00151 86.672402 C 42.848841 86.778604 43.285039 87.500771 43.721237 87.713174 C 43.961146 87.713174 44.942591 87.245889 44.833542 87.139687 Z M 44.833542 87.139687 " transform="matrix(0.179104,0,0,0.183908,0.157612,0.0993103)"/>
<path style="fill-rule:evenodd;fill:rgb(0%,0%,0%);fill-opacity:1;stroke-width:0.036;stroke-linecap:butt;stroke-linejoin:miter;stroke:rgb(0%,0%,0%);stroke-opacity:1;stroke-miterlimit:10;" d="M 45.400599 90.771768 C 45.26974 90.495645 43.677617 90.240762 43.568568 90.304482 C 43.459518 90.410684 43.786667 91.132852 44.244674 91.345254 C 44.462773 91.345254 45.553268 90.877969 45.400599 90.771768 Z M 45.400599 90.771768 " transform="matrix(0.179104,0,0,0.183908,0.157612,0.0993103)"/>
<path style="fill-rule:evenodd;fill:rgb(0%,0%,0%);fill-opacity:1;stroke-width:0.036;stroke-linecap:butt;stroke-linejoin:miter;stroke:rgb(0%,0%,0%);stroke-opacity:1;stroke-miterlimit:10;" d="M 45.400599 97.908486 C 45.26974 97.611123 43.677617 97.35624 43.568568 97.441201 C 43.459518 97.547402 43.786667 98.26957 44.244674 98.481973 C 44.462773 98.481973 45.553268 98.014687 45.400599 97.908486 Z M 45.400599 97.908486 " transform="matrix(0.179104,0,0,0.183908,0.157612,0.0993103)"/>
<path style="fill-rule:evenodd;fill:rgb(0%,0%,0%);fill-opacity:1;stroke-width:0.036;stroke-linecap:butt;stroke-linejoin:miter;stroke:rgb(0%,0%,0%);stroke-opacity:1;stroke-miterlimit:10;" d="M 45.008021 94.340127 C 44.833542 94.042764 43.350469 93.766641 43.219609 93.915322 C 43.11056 94.021523 43.415898 94.743691 43.895716 94.956094 C 44.135625 94.956094 45.11707 94.510049 45.008021 94.340127 Z M 45.008021 94.340127 " transform="matrix(0.179104,0,0,0.183908,0.157612,0.0993103)"/>
<path style="fill-rule:evenodd;fill:rgb(0%,0%,0%);fill-opacity:1;stroke-width:0.036;stroke-linecap:butt;stroke-linejoin:miter;stroke:rgb(0%,0%,0%);stroke-opacity:1;stroke-miterlimit:10;" d="M 46.403854 102.007852 C 46.272995 101.731729 44.680872 101.476846 44.571823 101.540566 C 44.462773 101.604287 44.789922 102.432656 45.26974 102.623818 C 45.487839 102.623818 46.556523 102.199014 46.403854 102.007852 Z M 46.403854 102.007852 " transform="matrix(0.179104,0,0,0.183908,0.157612,0.0993103)"/>
<path style="fill-rule:evenodd;fill:rgb(0%,0%,0%);fill-opacity:1;stroke-width:0.036;stroke-linecap:butt;stroke-linejoin:miter;stroke:rgb(0%,0%,0%);stroke-opacity:1;stroke-miterlimit:10;" d="M 47.014531 106.043496 C 46.883672 105.746133 45.291549 105.49125 45.1825 105.576211 C 45.073451 105.682412 45.400599 106.40458 45.880417 106.616982 C 46.098516 106.616982 47.167201 106.149697 47.014531 106.043496 Z M 47.014531 106.043496 " transform="matrix(0.179104,0,0,0.183908,0.157612,0.0993103)"/>
<path style="fill-rule:evenodd;fill:rgb(0%,0%,0%);fill-opacity:1;stroke-width:0.036;stroke-linecap:butt;stroke-linejoin:miter;stroke:rgb(0%,0%,0%);stroke-opacity:1;stroke-miterlimit:10;" d="M 51.46375 107.084268 C 51.55099 106.786904 53.099492 106.638223 53.317591 106.786904 C 53.47026 106.893105 52.794154 107.657754 52.532435 107.806436 C 52.139857 107.806436 51.311081 107.190469 51.46375 107.084268 Z M 51.46375 107.084268 " transform="matrix(0.179104,0,0,0.183908,0.157612,0.0993103)"/>
<path style="fill-rule:evenodd;fill:rgb(0%,0%,0%);fill-opacity:1;stroke-width:0.036;stroke-linecap:butt;stroke-linejoin:miter;stroke:rgb(0%,0%,0%);stroke-opacity:1;stroke-miterlimit:10;" d="M 52.903203 102.79374 C 52.990443 102.581338 54.538945 102.411416 54.757044 102.538857 C 54.909714 102.687539 54.233607 103.345986 53.971888 103.515908 C 53.57931 103.515908 52.750534 102.899941 52.903203 102.79374 Z M 52.903203 102.79374 " transform="matrix(0.179104,0,0,0.183908,0.157612,0.0993103)"/>
<path style="fill-rule:evenodd;fill:rgb(0%,0%,0%);fill-opacity:1;stroke-width:0.036;stroke-linecap:butt;stroke-linejoin:miter;stroke:rgb(0%,0%,0%);stroke-opacity:1;stroke-miterlimit:10;" d="M 54.124557 98.864297 C 54.233607 98.651895 55.782109 98.481973 55.978398 98.630654 C 56.131068 98.758096 55.454961 99.416543 55.193242 99.586465 C 54.800664 99.586465 53.971888 98.991738 54.124557 98.864297 Z M 54.124557 98.864297 " transform="matrix(0.179104,0,0,0.183908,0.157612,0.0993103)"/>
<path style="fill-rule:evenodd;fill:rgb(0%,0%,0%);fill-opacity:1;stroke-width:0.036;stroke-linecap:butt;stroke-linejoin:miter;stroke:rgb(0%,0%,0%);stroke-opacity:1;stroke-miterlimit:10;" d="M 55.782109 95.444619 C 55.803919 95.168496 57.396042 95.019814 57.614141 95.168496 C 57.72319 95.317178 57.134323 95.954385 56.850794 96.145547 C 56.458216 96.103066 55.62944 95.593301 55.782109 95.444619 Z M 55.782109 95.444619 " transform="matrix(0.179104,0,0,0.183908,0.157612,0.0993103)"/>
<path style="fill-rule:evenodd;fill:rgb(0%,0%,0%);fill-opacity:1;stroke-width:0.036;stroke-linecap:butt;stroke-linejoin:miter;stroke:rgb(0%,0%,0%);stroke-opacity:1;stroke-miterlimit:10;" d="M 56.785365 91.706338 C 56.894414 91.430215 58.442917 91.281533 58.661016 91.430215 C 58.791875 91.557656 58.115768 92.216104 57.854049 92.386025 C 57.461471 92.364785 56.632695 91.85502 56.785365 91.706338 Z M 56.785365 91.706338 " transform="matrix(0.179104,0,0,0.183908,0.157612,0.0993103)"/>
<path style="fill-rule:evenodd;fill:rgb(0%,0%,0%);fill-opacity:1;stroke-width:0.036;stroke-linecap:butt;stroke-linejoin:miter;stroke:rgb(0%,0%,0%);stroke-opacity:1;stroke-miterlimit:10;" d="M 176.543503 77.709023 C 176.739792 77.602822 177.13237 76.094766 177.197799 75.946084 C 177.08875 75.691201 176.107305 76.158486 176.085495 76.51957 C 175.911016 76.731973 176.347214 77.772744 176.543503 77.709023 Z M 176.543503 77.709023 " transform="matrix(0.179104,0,0,0.183908,0.157612,0.0993103)"/>
<path style="fill-rule:evenodd;fill:rgb(0%,0%,0%);fill-opacity:1;stroke-width:0.036;stroke-linecap:butt;stroke-linejoin:miter;stroke:rgb(0%,0%,0%);stroke-opacity:1;stroke-miterlimit:10;" d="M 181.079961 79.726846 C 181.27625 79.620645 181.668828 78.112588 181.734258 77.963906 C 181.625208 77.709023 180.665573 78.176309 180.621953 78.537393 C 180.447474 78.749795 180.883672 79.790566 181.101771 79.726846 Z M 181.079961 79.726846 " transform="matrix(0.179104,0,0,0.183908,0.157612,0.0993103)"/>
<path style="fill-rule:evenodd;fill:rgb(0%,0%,0%);fill-opacity:1;stroke-width:0.036;stroke-linecap:butt;stroke-linejoin:miter;stroke:rgb(0%,0%,0%);stroke-opacity:1;stroke-miterlimit:10;" d="M 185.52918 81.999551 C 185.703659 81.91459 186.096237 80.300332 186.161667 80.194131 C 186.052617 79.939248 185.092982 80.406533 185.049362 80.767617 C 184.853073 81.04374 185.289271 82.063271 185.50737 81.999551 Z M 185.52918 81.999551 " transform="matrix(0.179104,0,0,0.183908,0.157612,0.0993103)"/>
<path style="fill-rule:evenodd;fill:rgb(0%,0%,0%);fill-opacity:1;stroke-width:0.036;stroke-linecap:butt;stroke-linejoin:miter;stroke:rgb(0%,0%,0%);stroke-opacity:1;stroke-miterlimit:10;" d="M 190.959844 83.507607 C 191.134323 83.401406 191.526901 81.872109 191.592331 81.744668 C 191.483281 81.489785 190.523646 81.95707 190.480026 82.318154 C 190.305547 82.530557 190.741745 83.571328 190.959844 83.507607 Z M 190.959844 83.507607 " transform="matrix(0.179104,0,0,0.183908,0.157612,0.0993103)"/>
<path style="fill-rule:evenodd;fill:rgb(0%,0%,0%);fill-opacity:1;stroke-width:0.036;stroke-linecap:butt;stroke-linejoin:miter;stroke:rgb(0%,0%,0%);stroke-opacity:1;stroke-miterlimit:10;" d="M 189.040573 76.880654 C 189.215052 76.795693 189.60763 75.181436 189.69487 75.075234 C 189.58582 74.820352 188.604375 75.287637 188.560755 75.648721 C 188.408086 75.946084 188.822474 76.944375 189.040573 76.880654 Z M 189.040573 76.880654 " transform="matrix(0.179104,0,0,0.183908,0.157612,0.0993103)"/>
<path style="fill-rule:evenodd;fill:rgb(0%,0%,0%);fill-opacity:1;stroke-width:0.036;stroke-linecap:butt;stroke-linejoin:miter;stroke:rgb(0%,0%,0%);stroke-opacity:1;stroke-miterlimit:10;" d="M 185.660039 72.547646 C 185.921758 72.441445 186.270716 70.933389 186.336146 70.784707 C 186.205286 70.551064 185.311081 71.01835 185.202031 71.379434 C 185.005742 71.591836 185.46375 72.632607 185.660039 72.547646 Z M 185.660039 72.547646 " transform="matrix(0.179104,0,0,0.183908,0.157612,0.0993103)"/>
<path style="fill-rule:evenodd;fill:rgb(0%,0%,0%);fill-opacity:1;stroke-width:0.036;stroke-linecap:butt;stroke-linejoin:miter;stroke:rgb(0%,0%,0%);stroke-opacity:1;stroke-miterlimit:10;" d="M 180.556523 69.127969 C 180.796432 69.021768 181.167201 67.513711 181.23263 67.365029 C 181.079961 67.131387 180.185755 67.598672 180.076706 67.959756 C 179.902227 68.172158 180.338424 69.21293 180.556523 69.127969 Z M 180.556523 69.127969 " transform="matrix(0.179104,0,0,0.183908,0.157612,0.0993103)"/>
<path style="fill-rule:evenodd;fill:rgb(0%,0%,0%);fill-opacity:1;stroke-width:0.036;stroke-linecap:butt;stroke-linejoin:miter;stroke:rgb(0%,0%,0%);stroke-opacity:1;stroke-miterlimit:10;" d="M 156.500208 87.776895 C 156.565638 87.606973 159.924362 88.732705 161.690964 90.729287 C 163.304896 92.83207 166.183802 98.864297 166.57638 100.138711 C 166.838099 101.243203 164.962448 99.204141 164.024622 97.717324 C 163.021367 96.145547 162.127161 92.725869 160.927617 91.069131 C 159.597214 89.263711 156.325729 87.904336 156.500208 87.798135 Z M 156.500208 87.776895 " transform="matrix(0.179104,0,0,0.183908,0.157612,0.0993103)"/>
<path style="fill-rule:evenodd;fill:rgb(0%,0%,0%);fill-opacity:1;stroke-width:0.036;stroke-linecap:butt;stroke-linejoin:miter;stroke:rgb(0%,0%,0%);stroke-opacity:1;stroke-miterlimit:10;" d="M 125.290247 94.233926 C 124.897669 94.021523 125.224818 96.973916 124.308802 98.375771 C 123.414596 99.735146 119.815964 102.050332 119.881393 102.368936 C 119.859583 102.538857 123.065638 100.244912 124.199753 99.926309 C 125.224818 99.459023 125.072148 100.05375 126.119023 100.393594 C 127.013229 100.775918 130.175664 102.156533 130.219284 102.114053 C 130.153854 101.944131 126.947799 100.457314 126.162643 99.225381 C 125.290247 97.866006 125.508346 94.297646 125.290247 94.233926 Z M 125.290247 94.233926 " transform="matrix(0.179104,0,0,0.183908,0.157612,0.0993103)"/>
<path style="fill-rule:evenodd;fill:rgb(0%,0%,0%);fill-opacity:1;stroke-width:0.036;stroke-linecap:butt;stroke-linejoin:miter;stroke:rgb(0%,0%,0%);stroke-opacity:1;stroke-miterlimit:10;" d="M 94.734583 94.59501 C 94.407435 96.060586 94.080286 97.398721 93.753138 98.736855 C 93.42599 100.05375 94.516484 101.349404 93.31694 102.7725 C 92.051966 104.195596 86.337773 107.020547 86.446823 107.147988 C 86.599492 107.254189 92.051966 103.813271 93.600469 104.174355 C 95.127161 104.55668 95.148971 109.611855 95.47612 109.526895 C 95.803268 109.378213 94.538294 106.468301 96.632044 104.662881 C 98.725794 102.878701 101.321172 102.645059 101.321172 102.645059 C 99.161992 102.73002 97.61349 102.156533 96.522995 100.775918 C 95.41069 99.416543 94.756393 97.419961 94.734583 94.59501 Z M 94.734583 94.59501 " transform="matrix(0.179104,0,0,0.183908,0.157612,0.0993103)"/>
<path style="fill-rule:evenodd;fill:rgb(0%,0%,0%);fill-opacity:1;stroke-width:0.036;stroke-linecap:butt;stroke-linejoin:miter;stroke:rgb(0%,0%,0%);stroke-opacity:1;stroke-miterlimit:10;" d="M 49.980677 47.866494 C 49.39181 47.972695 48.497604 48.078896 47.843307 48.716104 C 47.014531 49.183389 45.662318 50.351602 45.553268 51.201211 C 45.487839 52.02958 46.338424 53.431436 47.167201 53.622598 C 47.821497 53.665078 48.824753 52.794229 49.609909 51.859658 C 50.220586 50.818887 51.267461 48.694863 51.37651 48.015176 C 51.42013 47.356729 50.482305 47.675332 49.980677 47.866494 Z M 49.980677 47.866494 " transform="matrix(0.179104,0,0,0.183908,0.157612,0.0993103)"/>
<path style="fill-rule:evenodd;fill:rgb(100%,89.411765%,18.039216%);fill-opacity:1;stroke-width:0.036;stroke-linecap:butt;stroke-linejoin:miter;stroke:rgb(0%,0%,0%);stroke-opacity:1;stroke-miterlimit:10;" d="M 49.588099 48.503701 C 49.151901 48.482461 48.563034 48.694863 47.995977 49.162148 C 47.385299 49.629434 46.120326 50.521523 46.011276 51.307412 C 45.793177 51.965859 46.665573 53.049111 47.23263 53.155313 C 47.734258 53.091592 48.715703 52.263223 49.32638 51.498574 C 49.871628 50.606484 50.591354 49.183389 50.656784 48.652383 C 50.656784 48.142617 49.980677 48.333779 49.588099 48.503701 Z M 49.588099 48.503701 " transform="matrix(0.179104,0,0,0.183908,0.157612,0.0993103)"/>
<path style="fill-rule:evenodd;fill:rgb(0%,0%,0%);fill-opacity:1;stroke-width:0.036;stroke-linecap:butt;stroke-linejoin:miter;stroke:rgb(0%,0%,0%);stroke-opacity:1;stroke-miterlimit:10;" d="M 80.470911 58.592813 C 80.623581 59.102578 80.75444 59.930947 81.474167 60.631875 C 82.128464 61.332803 83.197148 62.628457 84.178594 62.734658 C 85.00737 62.734658 86.272344 61.460244 86.446823 60.886758 C 86.490443 60.100869 85.356328 59.208779 84.462122 58.635293 C 83.284388 57.870645 81.256068 57.254678 80.514531 57.190957 C 79.816615 57.148477 80.187383 57.934365 80.470911 58.592813 Z M 80.470911 58.592813 " transform="matrix(0.179104,0,0,0.183908,0.157612,0.0993103)"/>
<path style="fill-rule:evenodd;fill:rgb(100%,89.411765%,18.039216%);fill-opacity:1;stroke-width:0.036;stroke-linecap:butt;stroke-linejoin:miter;stroke:rgb(0%,0%,0%);stroke-opacity:1;stroke-miterlimit:10;" d="M 81.147018 58.911416 C 81.147018 59.336221 81.408737 59.803506 81.910365 60.461953 C 82.455612 60.992959 83.458867 62.118691 84.244023 62.267373 C 84.89832 62.288613 85.836146 61.354043 85.945195 60.865518 C 85.879766 60.249551 84.89832 59.421182 84.134974 58.953896 C 83.240768 58.33793 81.648646 57.828164 81.190638 57.870645 C 80.71082 57.764443 80.928919 58.486611 81.147018 58.911416 Z M 81.147018 58.911416 " transform="matrix(0.179104,0,0,0.183908,0.157612,0.0993103)"/>
<path style="fill-rule:evenodd;fill:rgb(0%,0%,0%);fill-opacity:1;stroke-width:0.036;stroke-linecap:butt;stroke-linejoin:miter;stroke:rgb(0%,0%,0%);stroke-opacity:1;stroke-miterlimit:10;" d="M 107.035365 36.460488 C 106.468307 36.481729 105.552292 36.672891 104.919805 37.267617 C 104.091029 37.883584 102.717005 38.818154 102.607956 39.795205 C 102.542526 40.623574 103.393112 42.02543 104.221888 42.216592 C 104.876185 42.174111 105.87944 41.388223 106.686406 40.411172 C 107.297083 39.32792 108.343958 37.310098 108.453008 36.58793 C 108.474818 35.950723 107.515182 36.269326 107.013555 36.460488 Z M 107.035365 36.460488 " transform="matrix(0.179104,0,0,0.183908,0.157612,0.0993103)"/>
<path style="fill-rule:evenodd;fill:rgb(100%,81.568627%,15.686275%);fill-opacity:1;stroke-width:0.036;stroke-linecap:butt;stroke-linejoin:miter;stroke:rgb(0%,0%,0%);stroke-opacity:1;stroke-miterlimit:10;" d="M 106.642786 37.097695 C 106.206589 37.055215 105.639531 37.267617 105.050664 37.756143 C 104.439987 38.223428 103.175013 39.115518 103.065964 39.901406 C 102.869674 40.581094 103.72026 41.558145 104.309128 41.706826 C 104.723516 41.664346 105.748581 40.814736 106.359258 40.092568 C 106.882695 39.221719 107.624232 37.713662 107.689661 37.203896 C 107.646042 36.672891 107.078984 36.949014 106.642786 37.097695 Z M 106.642786 37.097695 " transform="matrix(0.179104,0,0,0.183908,0.157612,0.0993103)"/>
<path style="fill-rule:evenodd;fill:rgb(0%,0%,0%);fill-opacity:1;stroke-width:0.036;stroke-linecap:butt;stroke-linejoin:miter;stroke:rgb(0%,0%,0%);stroke-opacity:1;stroke-miterlimit:10;" d="M 96.632044 23.164102 C 96.239466 23.716348 95.868698 24.289834 95.846888 25.288125 C 95.694219 26.222695 95.51974 27.964395 96.130417 28.665322 C 96.697474 29.260049 98.355026 29.493691 99.009323 29.132607 C 99.510951 28.707803 99.467331 27.199746 99.336471 26.116494 C 99.074753 24.86332 98.071497 22.739297 97.722539 22.229531 C 97.199102 21.719766 96.850143 22.548135 96.632044 23.164102 Z M 96.632044 23.164102 " transform="matrix(0.179104,0,0,0.183908,0.157612,0.0993103)"/>
<path style="fill-rule:evenodd;fill:rgb(100%,89.411765%,18.039216%);fill-opacity:1;stroke-width:0.036;stroke-linecap:butt;stroke-linejoin:miter;stroke:rgb(0%,0%,0%);stroke-opacity:1;stroke-miterlimit:10;" d="M 96.893763 23.88627 C 96.675664 24.183633 96.239466 24.714639 96.283086 25.500527 C 96.130417 26.307656 96.174036 27.730752 96.522995 28.43168 C 96.959193 28.920205 98.136927 29.026406 98.682174 28.750283 C 99.052943 28.346719 99.009323 27.008584 98.856654 26.116494 C 98.638555 25.075723 97.918828 23.588906 97.678919 23.206582 C 97.286341 22.696816 97.068242 23.525186 96.893763 23.88627 Z M 96.893763 23.88627 " transform="matrix(0.179104,0,0,0.183908,0.157612,0.0993103)"/>
<path style="fill-rule:evenodd;fill:rgb(0%,0%,0%);fill-opacity:1;stroke-width:0.036;stroke-linecap:butt;stroke-linejoin:miter;stroke:rgb(0%,0%,0%);stroke-opacity:1;stroke-miterlimit:10;" d="M 110.17599 15.496377 C 110.503138 15.75126 110.852096 16.069863 111.528203 16.324746 C 112.16069 16.430947 113.294805 16.834512 113.883672 16.537148 C 114.385299 16.218545 114.603398 15.029092 114.516159 14.625527 C 114.21082 14.264443 113.338424 13.94584 112.509648 14.052041 C 111.615443 14.094521 110.06694 14.349404 109.674362 14.668008 C 109.150924 14.88041 109.870651 15.220254 110.15418 15.496377 Z M 110.17599 15.496377 " transform="matrix(0.179104,0,0,0.183908,0.157612,0.0993103)"/>
<path style="fill-rule:evenodd;fill:rgb(100%,89.411765%,18.039216%);fill-opacity:1;stroke-width:0.036;stroke-linecap:butt;stroke-linejoin:miter;stroke:rgb(0%,0%,0%);stroke-opacity:1;stroke-miterlimit:10;" d="M 110.699427 15.432656 C 110.808477 15.602578 111.244674 15.857461 111.724492 16.027383 C 112.22612 16.176064 113.272995 16.282266 113.731003 16.218545 C 114.167201 16.027383 114.385299 14.965371 114.23263 14.774209 C 113.949102 14.455605 113.076706 14.306924 112.466029 14.349404 C 111.746302 14.306924 110.677617 14.604287 110.350469 14.816689 C 110.02332 14.965371 110.415898 15.220254 110.699427 15.432656 Z M 110.699427 15.432656 " transform="matrix(0.179104,0,0,0.183908,0.157612,0.0993103)"/>
<path style="fill-rule:evenodd;fill:rgb(0%,0%,0%);fill-opacity:1;stroke-width:0.036;stroke-linecap:butt;stroke-linejoin:miter;stroke:rgb(0%,0%,0%);stroke-opacity:1;stroke-miterlimit:10;" d="M 104.374557 9.697793 C 104.200078 9.230508 103.87293 8.869424 103.393112 8.4871 C 102.782435 8.041055 101.844609 7.318887 101.277552 7.425088 C 100.557826 7.510049 99.947148 8.444619 99.968958 8.975625 C 100.056198 9.44291 100.797734 9.910195 101.67013 10.250039 C 102.433477 10.526162 103.981979 10.674844 104.505417 10.674844 C 104.876185 10.419961 104.549036 10.101357 104.374557 9.697793 Z M 104.374557 9.697793 " transform="matrix(0.179104,0,0,0.183908,0.157612,0.0993103)"/>
<path style="fill-rule:evenodd;fill:rgb(100%,89.411765%,18.039216%);fill-opacity:1;stroke-width:0.036;stroke-linecap:butt;stroke-linejoin:miter;stroke:rgb(0%,0%,0%);stroke-opacity:1;stroke-miterlimit:10;" d="M 103.82931 9.591592 C 103.611211 9.188027 103.502161 9.018105 103.109583 8.657021 C 102.607956 8.295938 101.77918 7.722451 101.299362 7.764932 C 100.797734 7.871133 100.165247 8.402139 100.339727 8.954385 C 100.448776 9.230508 101.124883 9.782754 101.822799 9.995156 C 102.455286 10.165078 103.502161 10.271279 103.981979 10.31376 C 104.221888 10.165078 103.89474 9.888955 103.82931 9.591592 Z M 103.82931 9.591592 " transform="matrix(0.179104,0,0,0.183908,0.157612,0.0993103)"/>
<path style="fill-rule:evenodd;fill:rgb(0%,0%,0%);fill-opacity:1;stroke-width:0.036;stroke-linecap:butt;stroke-linejoin:miter;stroke:rgb(0%,0%,0%);stroke-opacity:1;stroke-miterlimit:10;" d="M 89.282109 11.184609 C 89.369349 10.738564 89.652878 10.271279 89.609258 9.634072 C 89.500208 8.848184 89.500208 7.764932 89.06401 7.361367 C 88.649622 6.957803 87.275599 6.957803 87.0575 7.361367 C 86.730352 7.65873 86.773971 8.614541 87.166549 9.44291 C 87.406458 10.143838 88.235234 11.609414 88.671432 11.928018 C 88.954961 12.1829 89.06401 11.460732 89.282109 11.184609 Z M 89.282109 11.184609 " transform="matrix(0.179104,0,0,0.183908,0.157612,0.0993103)"/>
<path style="fill-rule:evenodd;fill:rgb(100%,89.411765%,18.039216%);fill-opacity:1;stroke-width:0.036;stroke-linecap:butt;stroke-linejoin:miter;stroke:rgb(0%,0%,0%);stroke-opacity:1;stroke-miterlimit:10;" d="M 89.06401 10.717324 C 89.15125 10.37748 89.325729 9.995156 89.325729 9.527871 C 89.282109 8.954385 89.06401 7.828652 88.824102 7.57377 C 88.453333 7.212686 87.450078 7.212686 87.319219 7.57377 C 86.948451 7.892373 87.275599 8.657021 87.450078 9.42167 C 87.668177 9.995156 88.235234 10.929727 88.606003 11.24833 C 88.780482 11.439492 88.889531 10.929727 89.06401 10.717324 Z M 89.06401 10.717324 " transform="matrix(0.179104,0,0,0.183908,0.157612,0.0993103)"/>
<path style="fill-rule:evenodd;fill:rgb(0%,0%,0%);fill-opacity:1;stroke-width:0.036;stroke-linecap:butt;stroke-linejoin:miter;stroke:rgb(0%,0%,0%);stroke-opacity:1;stroke-miterlimit:10;" d="M 73.273646 8.763223 C 73.186406 9.230508 73.164596 9.634072 73.448125 10.35624 C 73.622604 10.929727 74.102422 12.034219 74.713099 12.331582 C 75.214727 12.480264 76.392461 12.076699 76.61056 11.673135 C 76.65418 11.184609 76.392461 10.35624 75.869023 9.740273 C 75.323776 9.060586 74.015182 7.977334 73.622604 7.871133 C 73.164596 7.722451 73.273646 8.295938 73.273646 8.763223 Z M 73.273646 8.763223 " transform="matrix(0.179104,0,0,0.183908,0.157612,0.0993103)"/>
<path style="fill-rule:evenodd;fill:rgb(100%,89.411765%,18.039216%);fill-opacity:1;stroke-width:0.036;stroke-linecap:butt;stroke-linejoin:miter;stroke:rgb(0%,0%,0%);stroke-opacity:1;stroke-miterlimit:10;" d="M 73.622604 9.166787 C 73.557174 9.42167 73.557174 9.803994 73.775273 10.35624 C 73.884323 10.738564 74.42957 11.821816 74.843958 12.034219 C 75.214727 12.11918 76.108932 11.906777 76.283411 11.545693 C 76.283411 11.078408 75.999883 10.419961 75.563685 9.888955 C 75.171107 9.336709 74.167852 8.55082 73.906133 8.4871 C 73.622604 8.295938 73.491745 8.805703 73.622604 9.166787 Z M 73.622604 9.166787 " transform="matrix(0.179104,0,0,0.183908,0.157612,0.0993103)"/>
<path style="fill-rule:evenodd;fill:rgb(0%,0%,0%);fill-opacity:1;stroke-width:0.036;stroke-linecap:butt;stroke-linejoin:miter;stroke:rgb(0%,0%,0%);stroke-opacity:1;stroke-miterlimit:10;" d="M 67.254115 15.708779 C 67.036016 15.347695 66.643438 14.774209 66.20724 14.519326 C 65.574753 14.094521 64.549688 13.478555 64.02625 13.669717 C 63.328333 13.797158 62.761276 14.668008 62.870326 15.283975 C 62.870326 15.708779 63.764531 16.154824 64.593307 16.430947 C 65.313034 16.64335 66.970586 16.68583 67.472214 16.68583 C 67.864792 16.430947 67.472214 16.112344 67.254115 15.708779 Z M 67.254115 15.708779 " transform="matrix(0.179104,0,0,0.183908,0.157612,0.0993103)"/>
<path style="fill-rule:evenodd;fill:rgb(100%,81.568627%,15.686275%);fill-opacity:1;stroke-width:0.036;stroke-linecap:butt;stroke-linejoin:miter;stroke:rgb(0%,0%,0%);stroke-opacity:1;stroke-miterlimit:10;" d="M 66.708867 15.645059 C 66.534388 15.283975 66.316289 15.029092 65.923711 14.731729 C 65.378464 14.306924 64.484258 13.9246 64.04806 13.94584 C 63.502812 13.98832 63.088424 14.774209 63.197474 15.220254 C 63.262904 15.560098 64.04806 15.921182 64.745977 16.154824 C 65.378464 16.282266 66.425339 16.388467 66.905156 16.324746 C 67.145065 16.176064 66.861536 15.857461 66.708867 15.645059 Z M 66.708867 15.645059 " transform="matrix(0.179104,0,0,0.183908,0.157612,0.0993103)"/>
<path style="fill-rule:evenodd;fill:rgb(0%,0%,0%);fill-opacity:1;stroke-width:0.036;stroke-linecap:butt;stroke-linejoin:miter;stroke:rgb(0%,0%,0%);stroke-opacity:1;stroke-miterlimit:10;" d="M 125.770065 7.871133 C 125.355677 7.61625 124.941289 7.255166 124.330612 7.212686 C 123.567266 7.000283 122.411341 6.936562 121.975143 7.297646 C 121.451706 7.510049 121.255417 8.911904 121.582565 9.272988 C 121.866094 9.549111 122.69487 9.676553 123.632695 9.591592 C 124.439661 9.42167 125.944544 8.911904 126.380742 8.657021 C 126.729701 8.338418 126.009974 8.126016 125.770065 7.871133 Z M 125.770065 7.871133 " transform="matrix(0.179104,0,0,0.183908,0.157612,0.0993103)"/>
<path style="fill-rule:evenodd;fill:rgb(100%,89.411765%,18.039216%);fill-opacity:1;stroke-width:0.036;stroke-linecap:butt;stroke-linejoin:miter;stroke:rgb(0%,0%,0%);stroke-opacity:1;stroke-miterlimit:10;" d="M 125.246628 8.019814 C 124.963099 7.764932 124.614141 7.552529 124.177943 7.510049 C 123.589076 7.297646 122.542201 7.361367 122.149622 7.57377 C 121.757044 7.722451 121.473516 8.763223 121.822474 9.060586 C 122.084193 9.230508 122.912969 9.42167 123.632695 9.315469 C 124.243372 9.081826 125.399297 8.805703 125.726445 8.593301 C 125.944544 8.338418 125.508346 8.189736 125.246628 8.019814 Z M 125.246628 8.019814 " transform="matrix(0.179104,0,0,0.183908,0.157612,0.0993103)"/>
<path style="fill-rule:evenodd;fill:rgb(0%,0%,0%);fill-opacity:1;stroke-width:0.036;stroke-linecap:butt;stroke-linejoin:miter;stroke:rgb(0%,0%,0%);stroke-opacity:1;stroke-miterlimit:10;" d="M 132.880091 13.733438 C 133.03276 13.372354 133.425339 12.841348 133.490768 12.267861 C 133.599818 11.503213 133.599818 10.35624 133.338099 9.910195 C 132.945521 9.42167 131.702357 9.315469 131.375208 9.591592 C 130.98263 9.803994 130.829961 10.823525 131.06987 11.651895 C 131.157109 12.480264 131.833216 13.839639 132.160365 14.349404 C 132.378464 14.710488 132.661992 13.98832 132.880091 13.733438 Z M 132.880091 13.733438 " transform="matrix(0.179104,0,0,0.183908,0.157612,0.0993103)"/>
<path style="fill-rule:evenodd;fill:rgb(100%,89.411765%,18.039216%);fill-opacity:1;stroke-width:0.036;stroke-linecap:butt;stroke-linejoin:miter;stroke:rgb(0%,0%,0%);stroke-opacity:1;stroke-miterlimit:10;" d="M 132.749232 13.223672 C 132.880091 13.01127 133.14181 12.501504 133.20724 12.11918 C 133.250859 11.566934 133.250859 10.37748 133.05457 10.101357 C 132.705612 9.634072 131.833216 9.591592 131.593307 9.846475 C 131.222539 10.101357 131.309779 10.929727 131.397018 11.651895 C 131.484258 12.289102 131.876836 13.308633 132.203984 13.690957 C 132.356654 13.9246 132.531133 13.478555 132.749232 13.223672 Z M 132.749232 13.223672 " transform="matrix(0.179104,0,0,0.183908,0.157612,0.0993103)"/>
<path style="fill-rule:evenodd;fill:rgb(0%,0%,0%);fill-opacity:1;stroke-width:0.036;stroke-linecap:butt;stroke-linejoin:miter;stroke:rgb(0%,0%,0%);stroke-opacity:1;stroke-miterlimit:10;" d="M 141.669479 13.797158 C 141.56043 14.264443 141.625859 14.668008 141.887578 15.390176 C 142.105677 16.006143 142.650924 16.983193 143.217982 17.344277 C 143.763229 17.55668 144.831914 16.940713 145.093633 16.622109 C 145.202682 16.112344 144.810104 15.283975 144.308477 14.710488 C 143.719609 14.094521 142.345586 12.947549 141.996628 12.905068 C 141.51681 12.756387 141.604049 13.329873 141.669479 13.797158 Z M 141.669479 13.797158 " transform="matrix(0.179104,0,0,0.183908,0.157612,0.0993103)"/>
<path style="fill-rule:evenodd;fill:rgb(100%,89.411765%,18.039216%);fill-opacity:1;stroke-width:0.036;stroke-linecap:butt;stroke-linejoin:miter;stroke:rgb(0%,0%,0%);stroke-opacity:1;stroke-miterlimit:10;" d="M 142.062057 14.158242 C 141.996628 14.413125 141.996628 14.816689 142.214727 15.347695 C 142.411016 15.857461 142.847214 16.792031 143.348841 17.046914 C 143.67599 17.153115 144.657435 16.834512 144.766484 16.515908 C 144.788294 16.112344 144.395716 15.283975 144.003138 14.85917 C 143.54513 14.264443 142.607305 13.584756 142.301966 13.478555 C 141.996628 13.308633 141.974818 13.797158 142.062057 14.158242 Z M 142.062057 14.158242 " transform="matrix(0.179104,0,0,0.183908,0.157612,0.0993103)"/>
<path style="fill-rule:evenodd;fill:rgb(0%,0%,0%);fill-opacity:1;stroke-width:0.036;stroke-linecap:butt;stroke-linejoin:miter;stroke:rgb(0%,0%,0%);stroke-opacity:1;stroke-miterlimit:10;" d="M 152.290898 23.482705 C 151.96375 23.206582 151.462122 22.803018 150.916875 22.739297 C 150.175339 22.484414 149.041224 22.399453 148.539596 22.654336 C 147.994349 22.951699 147.68901 24.141152 147.994349 24.565957 C 148.299688 25.012002 149.128464 25.033242 150.066289 25.075723 C 150.916875 25.012002 152.334518 24.459756 152.857956 24.289834 C 153.206914 24.056191 152.596237 23.673867 152.290898 23.482705 Z M 152.290898 23.482705 " transform="matrix(0.179104,0,0,0.183908,0.157612,0.0993103)"/>
<path style="fill-rule:evenodd;fill:rgb(100%,89.411765%,18.039216%);fill-opacity:1;stroke-width:0.036;stroke-linecap:butt;stroke-linejoin:miter;stroke:rgb(0%,0%,0%);stroke-opacity:1;stroke-miterlimit:10;" d="M 151.789271 23.567666 C 151.462122 23.312783 151.244023 23.121621 150.742396 23.01542 C 150.175339 22.803018 149.128464 22.739297 148.735885 22.951699 C 148.256068 23.121621 148.081589 24.056191 148.343307 24.396035 C 148.517786 24.608438 149.368372 24.82084 150.088099 24.757119 C 150.720586 24.650918 151.854701 24.353555 152.181849 24.183633 C 152.378138 23.94999 152.00737 23.716348 151.811081 23.567666 Z M 151.789271 23.567666 " transform="matrix(0.179104,0,0,0.183908,0.157612,0.0993103)"/>
<path style="fill-rule:evenodd;fill:rgb(0%,0%,0%);fill-opacity:1;stroke-width:0.036;stroke-linecap:butt;stroke-linejoin:miter;stroke:rgb(0%,0%,0%);stroke-opacity:1;stroke-miterlimit:10;" d="M 130.393763 44.191934 C 129.957565 43.682168 129.281458 43.214883 128.496302 42.93876 C 127.514857 42.577676 125.900924 42.02543 125.137578 42.428994 C 124.396042 42.790078 123.698125 44.446816 124.068893 45.168984 C 124.286992 45.742471 125.682826 46.061074 126.90418 46.124795 C 128.125534 46.103555 130.371953 45.763711 131.09168 45.445107 C 131.593307 45.062783 130.764531 44.595498 130.393763 44.191934 Z M 130.393763 44.191934 " transform="matrix(0.179104,0,0,0.183908,0.157612,0.0993103)"/>
<path style="fill-rule:evenodd;fill:rgb(100%,89.411765%,18.039216%);fill-opacity:1;stroke-width:0.036;stroke-linecap:butt;stroke-linejoin:miter;stroke:rgb(0%,0%,0%);stroke-opacity:1;stroke-miterlimit:10;" d="M 129.630417 44.255654 C 129.325078 43.89457 128.88888 43.427285 128.190964 43.299844 C 127.471237 42.896279 125.813685 42.598916 125.312057 42.853799 C 124.592331 43.151162 124.243372 44.298135 124.526901 44.914102 C 124.745 45.296426 126.031784 45.69999 127.013229 45.69999 C 127.907435 45.65751 129.608607 45.445107 130.153854 45.190225 C 130.524622 44.914102 129.979375 44.553018 129.652227 44.255654 Z M 129.630417 44.255654 " transform="matrix(0.179104,0,0,0.183908,0.157612,0.0993103)"/>
<path style="fill-rule:evenodd;fill:rgb(0%,0%,0%);fill-opacity:1;stroke-width:0.036;stroke-linecap:butt;stroke-linejoin:miter;stroke:rgb(0%,0%,0%);stroke-opacity:1;stroke-miterlimit:10;" d="M 152.399948 37.033975 C 151.723841 37.140176 150.960495 37.246377 150.284388 37.883584 C 149.368372 38.350869 148.147018 39.519082 148.016159 40.368691 C 147.86349 41.197061 148.910365 42.598916 149.630091 42.790078 C 150.240768 42.747598 151.309453 41.961709 152.02918 40.984658 C 152.727096 39.901406 153.686732 37.883584 153.839401 37.161416 C 153.948451 36.524209 152.879766 36.842813 152.399948 37.033975 Z M 152.399948 37.033975 " transform="matrix(0.179104,0,0,0.183908,0.157612,0.0993103)"/>
<path style="fill-rule:evenodd;fill:rgb(100%,89.411765%,18.039216%);fill-opacity:1;stroke-width:0.036;stroke-linecap:butt;stroke-linejoin:miter;stroke:rgb(0%,0%,0%);stroke-opacity:1;stroke-miterlimit:10;" d="M 152.02918 37.671182 C 151.527552 37.628701 151.004115 37.862344 150.415247 38.329629 C 149.84819 38.796914 148.430547 39.689004 148.430547 40.474893 C 148.299688 41.13334 149.084844 42.216592 149.695521 42.322793 C 150.240768 42.237832 151.113164 41.409463 151.745651 40.666055 C 152.290898 39.752725 153.010625 38.350869 153.076055 37.819863 C 153.032435 37.310098 152.465378 37.50126 152.05099 37.671182 Z M 152.02918 37.671182 " transform="matrix(0.179104,0,0,0.183908,0.157612,0.0993103)"/>
<path style="fill-rule:evenodd;fill:rgb(0%,0%,0%);fill-opacity:1;stroke-width:0.036;stroke-linecap:butt;stroke-linejoin:miter;stroke:rgb(0%,0%,0%);stroke-opacity:1;stroke-miterlimit:10;" d="M 145.835169 53.303994 C 145.987839 53.771279 146.424036 54.599648 147.143763 55.215615 C 147.75444 55.746621 149.215703 56.978555 150.044479 56.936074 C 150.764206 56.744912 152.138229 55.491738 152.072799 54.812051 C 151.92013 53.983682 150.851445 53.367715 149.80457 52.836709 C 148.692266 52.284463 146.336797 51.753457 145.70431 51.902139 C 145.006393 51.902139 145.508021 52.688027 145.835169 53.303994 Z M 145.835169 53.303994 " transform="matrix(0.179104,0,0,0.183908,0.157612,0.0993103)"/>
<path style="fill-rule:evenodd;fill:rgb(100%,89.411765%,18.039216%);fill-opacity:1;stroke-width:0.036;stroke-linecap:butt;stroke-linejoin:miter;stroke:rgb(0%,0%,0%);stroke-opacity:1;stroke-miterlimit:10;" d="M 146.554896 53.558877 C 146.707565 53.919961 146.838424 54.493447 147.536341 54.981973 C 148.103398 55.534219 149.324753 56.383828 150.088099 56.468789 C 150.655156 56.383828 151.680221 55.343057 151.592982 54.854531 C 151.483932 54.238564 150.306198 53.558877 149.542852 53.197793 C 148.648646 52.730508 146.925664 52.390664 146.445846 52.496865 C 145.922409 52.496865 146.293177 53.091592 146.576706 53.558877 Z M 146.554896 53.558877 " transform="matrix(0.179104,0,0,0.183908,0.157612,0.0993103)"/>
<path style="fill-rule:evenodd;fill:rgb(0%,0%,0%);fill-opacity:1;stroke-width:0.036;stroke-linecap:butt;stroke-linejoin:miter;stroke:rgb(0%,0%,0%);stroke-opacity:1;stroke-miterlimit:10;" d="M 144.482956 71.294473 C 144.657435 70.678506 144.810104 69.935098 144.766484 69.021768 C 144.548385 68.065957 144.330286 66.303018 143.697799 65.835732 C 142.978073 65.283486 141.167852 65.495889 140.775273 66.069375 C 140.295456 66.579141 140.622604 67.959756 141.167852 69.064248 C 141.713099 70.083779 142.999883 72.080361 143.697799 72.483926 C 144.199427 72.802529 144.264857 71.761758 144.482956 71.294473 Z M 144.482956 71.294473 " transform="matrix(0.179104,0,0,0.183908,0.157612,0.0993103)"/>
<path style="fill-rule:evenodd;fill:rgb(100%,89.411765%,18.039216%);fill-opacity:1;stroke-width:0.036;stroke-linecap:butt;stroke-linejoin:miter;stroke:rgb(0%,0%,0%);stroke-opacity:1;stroke-miterlimit:10;" d="M 144.090378 70.657266 C 144.221237 70.211221 144.286667 69.616494 144.286667 68.958047 C 144.199427 68.065957 143.828659 66.621621 143.370651 66.154336 C 142.781784 65.64457 141.45138 65.899453 141.167852 66.366738 C 140.840703 66.834023 141.167852 68.023477 141.604049 68.958047 C 141.909388 69.786416 142.999883 71.188271 143.479701 71.506875 C 143.828659 71.804238 143.915898 71.01835 144.090378 70.657266 Z M 144.090378 70.657266 " transform="matrix(0.179104,0,0,0.183908,0.157612,0.0993103)"/>
<path style="fill-rule:evenodd;fill:rgb(0%,0%,0%);fill-opacity:1;stroke-width:0.036;stroke-linecap:butt;stroke-linejoin:miter;stroke:rgb(0%,0%,0%);stroke-opacity:1;stroke-miterlimit:10;" d="M 119.205286 62.373574 C 118.703659 61.906289 118.202031 61.332803 117.307826 61.07792 C 116.32638 60.759316 114.712448 60.100869 113.949102 60.525674 C 113.120326 60.929238 112.487839 62.479775 112.836797 63.244424 C 113.054896 63.77543 114.450729 64.200234 115.672083 64.242715 C 116.915247 64.136514 119.139857 64.030312 119.859583 63.626748 C 120.448451 63.244424 119.576055 62.755898 119.227096 62.373574 Z M 119.205286 62.373574 " transform="matrix(0.179104,0,0,0.183908,0.157612,0.0993103)"/>
<path style="fill-rule:evenodd;fill:rgb(100%,89.411765%,18.039216%);fill-opacity:1;stroke-width:0.036;stroke-linecap:butt;stroke-linejoin:miter;stroke:rgb(0%,0%,0%);stroke-opacity:1;stroke-miterlimit:10;" d="M 118.42013 62.416055 C 118.005742 62.054971 117.722214 61.587686 117.002487 61.439004 C 116.28276 61.035439 114.625208 60.780557 114.123581 60.971719 C 113.447474 61.247842 112.967656 62.416055 113.294805 63.010781 C 113.512904 63.456826 114.821497 63.77543 115.781133 63.83915 C 116.675339 63.83915 118.37651 63.563027 118.921758 63.371865 C 119.292526 63.116982 118.747279 62.649697 118.42013 62.416055 Z M 118.42013 62.416055 " transform="matrix(0.179104,0,0,0.183908,0.157612,0.0993103)"/>
<path style="fill-rule:evenodd;fill:rgb(0%,0%,0%);fill-opacity:1;stroke-width:0.036;stroke-linecap:butt;stroke-linejoin:miter;stroke:rgb(0%,0%,0%);stroke-opacity:1;stroke-miterlimit:10;" d="M 73.884323 69.319131 C 73.295456 69.361611 72.40125 69.531533 71.746953 70.1475 C 70.918177 70.763467 69.565964 71.698037 69.456914 72.675088 C 69.391484 73.503457 70.24207 74.905312 71.070846 75.075234 C 71.725143 75.032754 72.728398 74.246865 73.513555 73.269814 C 74.124232 72.207803 75.171107 70.18998 75.280156 69.467812 C 75.323776 68.809365 74.385951 69.127969 73.884323 69.319131 Z M 73.884323 69.319131 " transform="matrix(0.179104,0,0,0.183908,0.157612,0.0993103)"/>
<path style="fill-rule:evenodd;fill:rgb(100%,89.411765%,18.039216%);fill-opacity:1;stroke-width:0.036;stroke-linecap:butt;stroke-linejoin:miter;stroke:rgb(0%,0%,0%);stroke-opacity:1;stroke-miterlimit:10;" d="M 73.491745 69.956338 C 73.055547 69.935098 72.46668 70.1475 71.899622 70.614785 C 71.288945 71.08207 70.023971 71.97416 69.914922 72.781289 C 69.696823 73.460977 70.569219 74.438027 71.136276 74.565469 C 71.659714 74.544229 72.619349 73.673379 73.230026 72.951211 C 73.775273 72.080361 74.495 70.572305 74.56043 70.083779 C 74.56043 69.531533 73.884323 69.828896 73.491745 69.956338 Z M 73.491745 69.956338 " transform="matrix(0.179104,0,0,0.183908,0.157612,0.0993103)"/>
<path style="fill-rule:evenodd;fill:rgb(0%,0%,0%);fill-opacity:1;stroke-width:0.036;stroke-linecap:butt;stroke-linejoin:miter;stroke:rgb(0%,0%,0%);stroke-opacity:1;stroke-miterlimit:10;" d="M 54.975143 76.052285 C 54.582565 75.436318 54.080938 74.905312 53.317591 74.438027 C 52.379766 73.822061 50.940313 73.142373 50.111536 73.354775 C 49.32638 73.503457 48.366745 75.160195 48.563034 75.839883 C 48.650273 76.47709 50.002487 77.029336 51.158411 77.305459 C 52.248906 77.517861 54.735234 77.602822 55.411341 77.39042 C 55.956589 77.093057 55.302292 76.51957 54.975143 76.052285 Z M 54.975143 76.052285 " transform="matrix(0.179104,0,0,0.183908,0.157612,0.0993103)"/>
<path style="fill-rule:evenodd;fill:rgb(100%,89.411765%,18.039216%);fill-opacity:1;stroke-width:0.036;stroke-linecap:butt;stroke-linejoin:miter;stroke:rgb(0%,0%,0%);stroke-opacity:1;stroke-miterlimit:10;" d="M 54.233607 75.988564 C 53.906458 75.54252 53.57931 75.032754 52.968633 74.756631 C 52.183477 74.331826 50.874883 73.630898 50.198776 73.822061 C 49.479049 73.928262 48.868372 75.160195 49.042852 75.691201 C 49.151901 76.116006 50.482305 76.668252 51.37651 76.923135 C 52.270716 77.093057 53.971888 77.156777 54.517135 76.986855 C 54.953333 76.689492 54.473516 76.413369 54.233607 75.988564 Z M 54.233607 75.988564 " transform="matrix(0.179104,0,0,0.183908,0.157612,0.0993103)"/>
<path style="fill-rule:evenodd;fill:rgb(0%,0%,0%);fill-opacity:1;stroke-width:0.036;stroke-linecap:butt;stroke-linejoin:miter;stroke:rgb(0%,0%,0%);stroke-opacity:1;stroke-miterlimit:10;" d="M 30.111862 66.727822 C 30.635299 67.003945 31.333216 67.237588 32.292852 67.365029 C 33.230677 67.365029 34.997279 67.258828 35.651576 66.770303 C 36.196823 66.069375 36.305872 64.306436 35.826055 63.83915 C 35.324427 63.456826 33.841354 63.308145 32.794479 63.81791 C 31.660365 64.178994 29.501185 65.134805 29.086797 65.750771 C 28.585169 66.218057 29.522995 66.366738 30.111862 66.727822 Z M 30.111862 66.727822 " transform="matrix(0.179104,0,0,0.183908,0.157612,0.0993103)"/>
<path style="fill-rule:evenodd;fill:rgb(100%,89.411765%,18.039216%);fill-opacity:1;stroke-width:0.036;stroke-linecap:butt;stroke-linejoin:miter;stroke:rgb(0%,0%,0%);stroke-opacity:1;stroke-miterlimit:10;" d="M 30.831589 66.430459 C 31.180547 66.579141 31.682174 66.834023 32.489141 66.897744 C 33.274297 66.876504 34.75737 66.834023 35.368047 66.409219 C 35.782435 65.856973 35.826055 64.540078 35.477096 64.200234 C 34.997279 63.81791 33.710495 63.945352 32.838099 64.242715 C 31.834844 64.455117 30.395391 65.325967 30.024622 65.708291 C 29.675664 66.048135 30.395391 66.175576 30.831589 66.430459 Z M 30.831589 66.430459 " transform="matrix(0.179104,0,0,0.183908,0.157612,0.0993103)"/>
<path style="fill-rule:evenodd;fill:rgb(0%,0%,0%);fill-opacity:1;stroke-width:0.036;stroke-linecap:butt;stroke-linejoin:miter;stroke:rgb(0%,0%,0%);stroke-opacity:1;stroke-miterlimit:10;" d="M 25.488164 51.392373 C 25.204635 50.733926 25.030156 50.011758 24.419479 49.374551 C 23.743372 48.652383 22.434779 47.399209 21.649622 47.399209 C 20.777227 47.356729 19.446823 48.546182 19.446823 49.31083 C 19.403203 49.948037 20.428268 50.818887 21.496953 51.498574 C 22.543828 52.135781 24.659388 52.688027 25.488164 52.836709 C 26.011602 52.730508 25.684453 51.965859 25.488164 51.392373 Z M 25.488164 51.392373 " transform="matrix(0.179104,0,0,0.183908,0.157612,0.0993103)"/>
<path style="fill-rule:evenodd;fill:rgb(100%,89.411765%,18.039216%);fill-opacity:1;stroke-width:0.036;stroke-linecap:butt;stroke-linejoin:miter;stroke:rgb(0%,0%,0%);stroke-opacity:1;stroke-miterlimit:10;" d="M 24.812057 51.09501 C 24.637578 50.627725 24.463099 50.139199 23.983281 49.586953 C 23.372604 49.055947 22.260299 47.824014 21.606003 47.866494 C 20.886276 47.781533 19.883021 48.694863 19.948451 49.31083 C 19.948451 49.841836 20.886276 50.606484 21.780482 51.179971 C 22.543828 51.668496 24.20138 52.00834 24.812057 52.135781 C 25.182826 52.135781 24.986536 51.434854 24.812057 51.09501 Z M 24.812057 51.09501 " transform="matrix(0.179104,0,0,0.183908,0.157612,0.0993103)"/>
<path style="fill-rule:evenodd;fill:rgb(0%,0%,0%);fill-opacity:1;stroke-width:0.036;stroke-linecap:butt;stroke-linejoin:miter;stroke:rgb(0%,0%,0%);stroke-opacity:1;stroke-miterlimit:10;" d="M 24.593958 33.508096 C 24.26681 33.996621 24.092331 34.76127 24.20138 35.759561 C 24.354049 36.63041 24.375859 38.45707 25.139206 39.051797 C 25.749883 39.476602 27.538294 39.434121 28.061732 38.924355 C 28.34526 38.329629 28.301641 36.991494 27.800013 35.908242 C 27.342005 34.76127 25.967982 32.743447 25.488164 32.382363 C 24.964727 31.915078 24.703008 32.892129 24.593958 33.508096 Z M 24.593958 33.508096 " transform="matrix(0.179104,0,0,0.183908,0.157612,0.0993103)"/>
<path style="fill-rule:evenodd;fill:rgb(100%,89.411765%,18.039216%);fill-opacity:1;stroke-width:0.036;stroke-linecap:butt;stroke-linejoin:miter;stroke:rgb(0%,0%,0%);stroke-opacity:1;stroke-miterlimit:10;" d="M 24.964727 34.187783 C 24.768438 34.506387 24.484909 35.122354 24.659388 35.865762 C 24.703008 36.672891 24.921107 38.095986 25.466354 38.690713 C 26.011602 39.009316 27.189336 39.115518 27.647344 38.605752 C 27.865443 38.223428 27.734583 36.736611 27.363815 35.971963 C 26.927617 35.079873 26.033411 33.614297 25.640833 33.359414 C 25.139206 32.95585 25.095586 33.784219 24.964727 34.187783 Z M 24.964727 34.187783 " transform="matrix(0.179104,0,0,0.183908,0.157612,0.0993103)"/>
<path style="fill-rule:evenodd;fill:rgb(0%,0%,0%);fill-opacity:1;stroke-width:0.036;stroke-linecap:butt;stroke-linejoin:miter;stroke:rgb(0%,0%,0%);stroke-opacity:1;stroke-miterlimit:10;" d="M 38.312383 28.45292 C 38.137904 29.026406 38.094284 29.791055 38.356003 30.725625 C 38.639531 31.596475 39.097539 33.253213 39.904505 33.741738 C 40.624232 34.102822 42.303594 33.614297 42.739792 33.062051 C 43.11056 32.339883 42.456263 31.19291 41.911016 30.194619 C 41.256719 29.175088 39.424688 27.475869 38.92306 27.199746 C 38.268763 26.944863 38.356003 27.730752 38.312383 28.45292 Z M 38.312383 28.45292 " transform="matrix(0.179104,0,0,0.183908,0.157612,0.0993103)"/>
<path style="fill-rule:evenodd;fill:rgb(100%,81.568627%,15.686275%);fill-opacity:1;stroke-width:0.036;stroke-linecap:butt;stroke-linejoin:miter;stroke:rgb(0%,0%,0%);stroke-opacity:1;stroke-miterlimit:10;" d="M 38.770391 29.026406 C 38.595911 29.429971 38.574102 30.003457 38.81401 30.768105 C 39.032109 31.553994 39.533737 32.892129 40.188034 33.380654 C 40.755091 33.678018 42.020065 33.316934 42.303594 32.849648 C 42.456263 32.318643 41.954635 31.044229 41.474818 30.322061 C 40.90776 29.472451 39.708216 28.346719 39.293828 28.091836 C 38.81401 27.836953 38.770391 28.537881 38.770391 29.026406 Z M 38.770391 29.026406 " transform="matrix(0.179104,0,0,0.183908,0.157612,0.0993103)"/>
<path style="fill-rule:evenodd;fill:rgb(0%,0%,0%);fill-opacity:1;stroke-width:0.036;stroke-linecap:butt;stroke-linejoin:miter;stroke:rgb(0%,0%,0%);stroke-opacity:1;stroke-miterlimit:10;" d="M 62.935755 25.543008 C 62.434128 25.500527 61.99793 25.75541 61.496302 26.158975 C 60.885625 26.583779 59.991419 27.157266 59.90418 27.879434 C 59.83875 28.43168 60.493047 29.38749 61.038294 29.536172 C 61.561732 29.536172 62.063359 28.898965 62.695846 28.282998 C 63.110234 27.475869 63.808151 26.180215 63.917201 25.649209 C 63.829961 25.224404 63.328333 25.330605 62.935755 25.543008 Z M 62.935755 25.543008 " transform="matrix(0.179104,0,0,0.183908,0.157612,0.0993103)"/>
<path style="fill-rule:evenodd;fill:rgb(100%,89.411765%,18.039216%);fill-opacity:1;stroke-width:0.036;stroke-linecap:butt;stroke-linejoin:miter;stroke:rgb(0%,0%,0%);stroke-opacity:1;stroke-miterlimit:10;" d="M 62.695846 26.010293 C 62.281458 25.967813 61.95431 26.116494 61.561732 26.435098 C 61.103724 26.774941 60.274948 27.412148 60.209518 27.964395 C 60.013229 28.389199 60.623906 29.068887 61.060104 29.175088 C 61.539922 29.175088 61.95431 28.537881 62.499557 28.070596 C 62.892135 27.475869 63.306523 26.413857 63.415573 26.074014 C 63.306523 25.649209 63.001185 25.904092 62.695846 26.010293 Z M 62.695846 26.010293 " transform="matrix(0.179104,0,0,0.183908,0.157612,0.0993103)"/>
<path style="fill-rule:evenodd;fill:rgb(0%,0%,0%);fill-opacity:1;stroke-width:0.036;stroke-linecap:butt;stroke-linejoin:miter;stroke:rgb(0%,0%,0%);stroke-opacity:1;stroke-miterlimit:10;" d="M 53.862839 31.384072 C 53.361211 31.341592 52.925013 31.596475 52.423385 31.978799 C 51.812708 32.424844 50.918503 32.99833 50.831263 33.720498 C 50.765833 34.251504 51.42013 35.228555 51.965378 35.377236 C 52.488815 35.440957 52.990443 34.76127 53.62293 34.145303 C 54.037318 33.380654 54.735234 31.978799 54.844284 31.490273 C 54.757044 31.044229 54.255417 31.15043 53.862839 31.384072 Z M 53.862839 31.384072 " transform="matrix(0.179104,0,0,0.183908,0.157612,0.0993103)"/>
<path style="fill-rule:evenodd;fill:rgb(100%,89.411765%,18.039216%);fill-opacity:1;stroke-width:0.036;stroke-linecap:butt;stroke-linejoin:miter;stroke:rgb(0%,0%,0%);stroke-opacity:1;stroke-miterlimit:10;" d="M 53.62293 31.851357 C 53.208542 31.808877 52.903203 31.957559 52.488815 32.276162 C 52.030807 32.594766 51.202031 33.253213 51.136602 33.784219 C 50.940313 34.187783 51.55099 34.973672 51.987188 35.037393 C 52.467005 35.079873 52.903203 34.336465 53.426641 33.89042 C 53.819219 33.316934 54.233607 32.233682 54.342656 31.915078 C 54.233607 31.490273 53.928268 31.723916 53.62293 31.851357 Z M 53.62293 31.851357 " transform="matrix(0.179104,0,0,0.183908,0.157612,0.0993103)"/>
<path style="fill-rule:evenodd;fill:rgb(0%,0%,0%);fill-opacity:1;stroke-width:0.036;stroke-linecap:butt;stroke-linejoin:miter;stroke:rgb(0%,0%,0%);stroke-opacity:1;stroke-miterlimit:10;" d="M 68.453659 36.418008 C 68.30099 36.779092 68.19194 37.352578 68.410039 37.989785 C 68.562708 38.690713 68.846237 39.646523 69.413294 40.092568 C 69.849492 40.26249 71.114466 40.092568 71.397995 39.689004 C 71.550664 39.221719 71.332565 38.329629 70.896367 37.671182 C 70.3075 36.949014 69.391484 35.69584 68.911667 35.547158 C 68.519089 35.334756 68.410039 35.950723 68.453659 36.418008 Z M 68.453659 36.418008 " transform="matrix(0.179104,0,0,0.183908,0.157612,0.0993103)"/>
<path style="fill-rule:evenodd;fill:rgb(100%,89.411765%,18.039216%);fill-opacity:1;stroke-width:0.036;stroke-linecap:butt;stroke-linejoin:miter;stroke:rgb(0%,0%,0%);stroke-opacity:1;stroke-miterlimit:10;" d="M 68.758997 36.800332 C 68.737188 37.055215 68.453659 37.458779 68.737188 37.989785 C 68.802617 38.542031 69.195195 39.476602 69.631393 39.837686 C 70.002161 39.986367 70.852747 39.880166 71.114466 39.519082 C 71.070846 39.073037 71.027227 38.329629 70.612839 37.777383 C 70.176641 37.161416 69.347865 36.311807 69.086146 36.163125 C 68.802617 35.908242 68.693568 36.460488 68.758997 36.800332 Z M 68.758997 36.800332 " transform="matrix(0.179104,0,0,0.183908,0.157612,0.0993103)"/>
<path style="fill-rule:evenodd;fill:rgb(0%,0%,0%);fill-opacity:1;stroke-width:0.036;stroke-linecap:butt;stroke-linejoin:miter;stroke:rgb(0%,0%,0%);stroke-opacity:1;stroke-miterlimit:10;" d="M 87.886276 45.891152 C 87.406458 45.848672 86.883021 46.103555 86.403203 46.485879 C 85.792526 46.931924 84.89832 47.50541 84.832891 48.227578 C 84.745651 48.758584 85.399948 49.735635 85.945195 49.884316 C 86.490443 49.948037 86.99207 49.26835 87.602747 48.652383 C 88.104375 47.887734 88.758672 46.485879 88.867721 45.997354 C 88.889531 45.551309 88.235234 45.65751 87.886276 45.891152 Z M 87.886276 45.891152 " transform="matrix(0.179104,0,0,0.183908,0.157612,0.0993103)"/>
<path style="fill-rule:evenodd;fill:rgb(100%,89.411765%,18.039216%);fill-opacity:1;stroke-width:0.036;stroke-linecap:butt;stroke-linejoin:miter;stroke:rgb(0%,0%,0%);stroke-opacity:1;stroke-miterlimit:10;" d="M 87.602747 46.358438 C 87.275599 46.315957 86.904831 46.464639 86.512253 46.783242 C 86.076055 47.101846 85.116419 47.760293 85.116419 48.291299 C 84.94194 48.716104 85.552617 49.417031 85.967005 49.523232 C 86.446823 49.523232 86.883021 48.864785 87.406458 48.3975 C 87.820846 47.824014 88.213424 46.740762 88.322474 46.422158 C 88.213424 45.997354 87.929896 46.252236 87.602747 46.358438 Z M 87.602747 46.358438 " transform="matrix(0.179104,0,0,0.183908,0.157612,0.0993103)"/>
<path style="fill-rule:evenodd;fill:rgb(0%,0%,0%);fill-opacity:1;stroke-width:0.036;stroke-linecap:butt;stroke-linejoin:miter;stroke:rgb(0%,0%,0%);stroke-opacity:1;stroke-miterlimit:10;" d="M 87.210169 30.045938 C 87.210169 29.578652 87.12293 29.111367 86.99207 28.4954 C 86.686732 27.773232 86.119674 26.796182 85.661667 26.541299 C 85.00737 26.222695 83.960495 26.838662 83.786016 27.263467 C 83.567917 27.667031 84.025924 28.537881 84.614792 29.175088 C 85.116419 29.727334 86.381393 30.831826 86.883021 30.980508 C 87.231979 31.022988 87.166549 30.513223 87.210169 30.045938 Z M 87.210169 30.045938 " transform="matrix(0.179104,0,0,0.183908,0.157612,0.0993103)"/>
<path style="fill-rule:evenodd;fill:rgb(100%,81.568627%,15.686275%);fill-opacity:1;stroke-width:0.036;stroke-linecap:butt;stroke-linejoin:miter;stroke:rgb(0%,0%,0%);stroke-opacity:1;stroke-miterlimit:10;" d="M 86.839401 29.684854 C 86.795781 29.38749 86.883021 28.962686 86.664922 28.537881 C 86.381393 27.964395 85.945195 27.008584 85.508997 26.838662 C 85.072799 26.62626 84.113164 26.944863 84.113164 27.412148 C 83.960495 27.773232 84.353073 28.45292 84.854701 29.026406 C 85.181849 29.493691 86.272344 30.215859 86.599492 30.364541 C 86.795781 30.428262 86.839401 29.939736 86.839401 29.684854 Z M 86.839401 29.684854 " transform="matrix(0.179104,0,0,0.183908,0.157612,0.0993103)"/>
<path style="fill-rule:evenodd;fill:rgb(0%,0%,0%);fill-opacity:1;stroke-width:0.036;stroke-linecap:butt;stroke-linejoin:miter;stroke:rgb(0%,0%,0%);stroke-opacity:1;stroke-miterlimit:10;" d="M 76.915898 23.588906 C 77.003138 23.164102 77.330286 22.696816 77.330286 22.059609 C 77.264857 21.25248 77.308477 20.211709 76.915898 19.744424 C 76.436081 19.319619 75.171107 19.277139 74.931198 19.638223 C 74.56043 19.935586 74.604049 20.891396 74.887578 21.719766 C 75.062057 22.526895 75.890833 23.88627 76.261602 24.289834 C 76.50151 24.565957 76.719609 23.92875 76.915898 23.588906 Z M 76.915898 23.588906 " transform="matrix(0.179104,0,0,0.183908,0.157612,0.0993103)"/>
<path style="fill-rule:evenodd;fill:rgb(100%,81.568627%,15.686275%);fill-opacity:1;stroke-width:0.036;stroke-linecap:butt;stroke-linejoin:miter;stroke:rgb(0%,0%,0%);stroke-opacity:1;stroke-miterlimit:10;" d="M 76.719609 23.100381 C 76.806849 22.739297 76.937708 22.484414 77.003138 21.932168 C 76.981328 21.358682 76.915898 20.27543 76.65418 19.956826 C 76.217982 19.532021 75.389206 19.638223 75.149297 19.893105 C 74.843958 20.105508 74.996628 21.082559 75.171107 21.698525 C 75.367396 22.272012 75.890833 23.376504 76.217982 23.631387 C 76.370651 23.737588 76.58875 23.418984 76.719609 23.100381 Z M 76.719609 23.100381 " transform="matrix(0.179104,0,0,0.183908,0.157612,0.0993103)"/>
<path style="fill-rule:evenodd;fill:rgb(0%,0%,0%);fill-opacity:1;stroke-width:0.036;stroke-linecap:butt;stroke-linejoin:miter;stroke:rgb(0%,0%,0%);stroke-opacity:1;stroke-miterlimit:10;" d="M 51.594609 19.234658 C 51.42013 18.767373 51.354701 18.236367 50.983932 17.769082 C 50.482305 17.110635 49.806198 16.324746 49.217331 16.218545 C 48.541224 16.112344 47.668828 16.855752 47.603398 17.365518 C 47.537969 17.917764 48.148646 18.406289 48.868372 19.022256 C 49.500859 19.489541 50.940313 20.063027 51.52918 20.211709 C 51.921758 20.254189 51.660039 19.595742 51.594609 19.234658 Z M 51.594609 19.234658 " transform="matrix(0.179104,0,0,0.183908,0.157612,0.0993103)"/>
<path style="fill-rule:evenodd;fill:rgb(100%,81.568627%,15.686275%);fill-opacity:1;stroke-width:0.036;stroke-linecap:butt;stroke-linejoin:miter;stroke:rgb(0%,0%,0%);stroke-opacity:1;stroke-miterlimit:10;" d="M 51.136602 18.958535 C 50.940313 18.639932 50.983932 18.278848 50.700404 17.875283 C 50.264206 17.365518 49.609909 16.64335 49.195521 16.537148 C 48.672083 16.367227 47.886927 16.983193 47.930547 17.407998 C 47.821497 17.726602 48.563034 18.385049 49.086471 18.809854 C 49.609909 19.213418 50.656784 19.595742 51.092982 19.701943 C 51.354701 19.638223 51.158411 19.234658 51.136602 18.958535 Z M 51.136602 18.958535 " transform="matrix(0.179104,0,0,0.183908,0.157612,0.0993103)"/>
<path style="fill-rule:evenodd;fill:rgb(0%,0%,0%);fill-opacity:1;stroke-width:0.036;stroke-linecap:butt;stroke-linejoin:miter;stroke:rgb(0%,0%,0%);stroke-opacity:1;stroke-miterlimit:10;" d="M 124.461471 21.804727 C 124.417852 22.165811 124.526901 22.654336 124.919479 23.312783 C 125.224818 23.843789 125.944544 24.778359 126.555221 25.012002 C 127.165898 24.969521 128.060104 24.502236 128.278203 24.034951 C 128.321823 23.482705 127.798385 22.760537 127.187708 22.272012 C 126.467982 21.613564 125.115768 20.976357 124.635951 20.870156 C 124.134323 20.785195 124.352422 21.294961 124.461471 21.804727 Z M 124.461471 21.804727 " transform="matrix(0.179104,0,0,0.183908,0.157612,0.0993103)"/>
<path style="fill-rule:evenodd;fill:rgb(100%,89.411765%,18.039216%);fill-opacity:1;stroke-width:0.036;stroke-linecap:butt;stroke-linejoin:miter;stroke:rgb(0%,0%,0%);stroke-opacity:1;stroke-miterlimit:10;" d="M 124.897669 22.12333 C 124.919479 22.399453 124.854049 22.739297 125.246628 23.227822 C 125.573776 23.673867 126.031784 24.523477 126.642461 24.714639 C 127.056849 24.82084 127.798385 24.247354 127.951055 23.94999 C 127.994674 23.418984 127.383997 22.909219 126.947799 22.441934 C 126.446172 21.974648 125.290247 21.401162 125.028529 21.401162 C 124.635951 21.294961 124.83224 21.762246 124.897669 22.12333 Z M 124.897669 22.12333 " transform="matrix(0.179104,0,0,0.183908,0.157612,0.0993103)"/>
</g>
</svg>
